<svg width="42" height="50" viewBox="0 0 42 50" fill="none" xmlns="http://www.w3.org/2000/svg">
<path d="M13.5312 27.5625H8V48H2V2.5H8V22.5625H12.6875L28.5938 2.5H36.0625L18.6875 24.5625L37.3438 48H30L13.5312 27.5625Z" fill="black"/>
<path d="M13.5312 27.5625L15.0886 26.3076L14.4882 25.5625H13.5312V27.5625ZM8 27.5625V25.5625H6V27.5625H8ZM8 48V50H10V48H8ZM2 48H0V50H2V48ZM2 2.5V0.5H0V2.5H2ZM8 2.5H10V0.5H8V2.5ZM8 22.5625H6V24.5625H8V22.5625ZM12.6875 22.5625V24.5625H13.6542L14.2547 23.805L12.6875 22.5625ZM28.5938 2.5V0.5H27.6271L27.0265 1.25747L28.5938 2.5ZM36.0625 2.5L37.6337 3.73741L40.1833 0.5H36.0625V2.5ZM18.6875 24.5625L17.1163 23.3251L16.1365 24.5691L17.1227 25.8081L18.6875 24.5625ZM37.3438 48V50H41.492L38.9085 46.7544L37.3438 48ZM30 48L28.4427 49.2549L29.0431 50H30V48ZM13.5312 25.5625H8V29.5625H13.5312V25.5625ZM6 27.5625V48H10V27.5625H6ZM8 46H2V50H8V46ZM4 48V2.5H0V48H4ZM2 4.5H8V0.5H2V4.5ZM6 2.5V22.5625H10V2.5H6ZM8 24.5625H12.6875V20.5625H8V24.5625ZM14.2547 23.805L30.161 3.74253L27.0265 1.25747L11.1203 21.32L14.2547 23.805ZM28.5938 4.5H36.0625V0.5H28.5938V4.5ZM34.4913 1.26259L17.1163 23.3251L20.2587 25.7999L37.6337 3.73741L34.4913 1.26259ZM17.1227 25.8081L35.779 49.2456L38.9085 46.7544L20.2523 23.3169L17.1227 25.8081ZM37.3438 46H30V50H37.3438V46ZM31.5573 46.7451L15.0886 26.3076L11.9739 28.8174L28.4427 49.2549L31.5573 46.7451Z" fill="white"/>
</svg>
