<svg width="56" height="49" viewBox="0 0 56 49" fill="none" xmlns="http://www.w3.org/2000/svg">
<path d="M11.2031 21.6719H7.05469V37H2.55469V2.875H7.05469V17.9219H10.5703L22.5 2.875H28.1016L15.0703 19.4219L29.0625 37H23.5547L11.2031 21.6719ZM53.3672 24.6016C53.3672 28.4609 52.4844 31.5703 50.7188 33.9297C48.9531 36.2891 46.5625 37.4688 43.5469 37.4688C40.4688 37.4688 38.0469 36.4922 36.2812 34.5391V46.75H31.9453V11.6406H35.9062L36.1172 14.4531C37.8828 12.2656 40.3359 11.1719 43.4766 11.1719C46.5234 11.1719 48.9297 12.3203 50.6953 14.6172C52.4766 16.9141 53.3672 20.1094 53.3672 24.2031V24.6016ZM49.0312 24.1094C49.0312 21.25 48.4219 18.9922 47.2031 17.3359C45.9844 15.6797 44.3125 14.8516 42.1875 14.8516C39.5625 14.8516 37.5938 16.0156 36.2812 18.3438V30.4609C37.5781 32.7734 39.5625 33.9297 42.2344 33.9297C44.3125 33.9297 45.9609 33.1094 47.1797 31.4688C48.4141 29.8125 49.0312 27.3594 49.0312 24.1094Z" fill="black"/>
<path d="M11.2031 21.6719L12.7604 20.417L12.16 19.6719H11.2031V21.6719ZM7.05469 21.6719V19.6719H5.05469V21.6719H7.05469ZM7.05469 37V39H9.05469V37H7.05469ZM2.55469 37H0.554688V39H2.55469V37ZM2.55469 2.875V0.875H0.554688V2.875H2.55469ZM7.05469 2.875H9.05469V0.875H7.05469V2.875ZM7.05469 17.9219H5.05469V19.9219H7.05469V17.9219ZM10.5703 17.9219V19.9219H11.537L12.1375 19.1644L10.5703 17.9219ZM22.5 2.875V0.875H21.5333L20.9328 1.63247L22.5 2.875ZM28.1016 2.875L29.6728 4.11241L32.2224 0.875H28.1016V2.875ZM15.0703 19.4219L13.4991 18.1845L12.5193 19.4285L13.5055 20.6674L15.0703 19.4219ZM29.0625 37V39H33.2108L30.6273 35.7544L29.0625 37ZM23.5547 37L21.9974 38.2549L22.5978 39H23.5547V37ZM11.2031 19.6719H7.05469V23.6719H11.2031V19.6719ZM5.05469 21.6719V37H9.05469V21.6719H5.05469ZM7.05469 35H2.55469V39H7.05469V35ZM4.55469 37V2.875H0.554688V37H4.55469ZM2.55469 4.875H7.05469V0.875H2.55469V4.875ZM5.05469 2.875V17.9219H9.05469V2.875H5.05469ZM7.05469 19.9219H10.5703V15.9219H7.05469V19.9219ZM12.1375 19.1644L24.0672 4.11753L20.9328 1.63247L9.00311 16.6793L12.1375 19.1644ZM22.5 4.875H28.1016V0.875H22.5V4.875ZM26.5303 1.63759L13.4991 18.1845L16.6416 20.6593L29.6728 4.11241L26.5303 1.63759ZM13.5055 20.6674L27.4977 38.2456L30.6273 35.7544L16.6351 18.1763L13.5055 20.6674ZM29.0625 35H23.5547V39H29.0625V35ZM25.112 35.7451L12.7604 20.417L9.64581 22.9268L21.9974 38.2549L25.112 35.7451ZM36.2812 34.5391L37.7649 33.1979L34.2812 29.3443V34.5391H36.2812ZM36.2812 46.75V48.75H38.2812V46.75H36.2812ZM31.9453 46.75H29.9453V48.75H31.9453V46.75ZM31.9453 11.6406V9.64062H29.9453V11.6406H31.9453ZM35.9062 11.6406L37.9006 11.491L37.7619 9.64062H35.9062V11.6406ZM36.1172 14.4531L34.1228 14.6027L34.5006 19.6403L37.6735 15.7093L36.1172 14.4531ZM50.6953 14.6172L49.1096 15.8361L49.1149 15.8428L50.6953 14.6172ZM36.2812 18.3438L34.539 17.3616L34.2812 17.8188V18.3438H36.2812ZM36.2812 30.4609H34.2812V30.9835L34.5368 31.4392L36.2812 30.4609ZM47.1797 31.4688L45.5761 30.2736L45.5742 30.2761L47.1797 31.4688ZM51.3672 24.6016C51.3672 28.1626 50.5542 30.8115 49.1175 32.7314L52.32 35.128C54.4145 32.3292 55.3672 28.7593 55.3672 24.6016H51.3672ZM49.1175 32.7314C47.7397 34.5724 45.9496 35.4688 43.5469 35.4688V39.4688C47.1754 39.4688 50.1665 38.0057 52.32 35.128L49.1175 32.7314ZM43.5469 35.4688C40.9293 35.4688 39.0863 34.6596 37.7649 33.1979L34.7976 35.8803C37.0075 38.3248 40.0082 39.4688 43.5469 39.4688V35.4688ZM34.2812 34.5391V46.75H38.2812V34.5391H34.2812ZM36.2812 44.75H31.9453V48.75H36.2812V44.75ZM33.9453 46.75V11.6406H29.9453V46.75H33.9453ZM31.9453 13.6406H35.9062V9.64062H31.9453V13.6406ZM33.9119 11.7902L34.1228 14.6027L38.1116 14.3035L37.9006 11.491L33.9119 11.7902ZM37.6735 15.7093C39.0117 14.0513 40.8601 13.1719 43.4766 13.1719V9.17188C39.8117 9.17188 36.7539 10.4799 34.5609 13.197L37.6735 15.7093ZM43.4766 13.1719C45.9396 13.1719 47.7448 14.0606 49.1097 15.8361L52.281 13.3983C50.1146 10.58 47.1072 9.17188 43.4766 9.17188V13.1719ZM49.1149 15.8428C50.5325 17.6709 51.3672 20.376 51.3672 24.2031H55.3672C55.3672 19.8428 54.4206 16.1572 52.2758 13.3915L49.1149 15.8428ZM51.3672 24.2031V24.6016H55.3672V24.2031H51.3672ZM51.0312 24.1094C51.0312 20.9861 50.3673 18.2615 48.814 16.1506L45.5922 18.5213C46.4764 19.7229 47.0312 21.5139 47.0312 24.1094H51.0312ZM48.814 16.1506C47.2038 13.9623 44.9234 12.8516 42.1875 12.8516V16.8516C43.7016 16.8516 44.765 17.3971 45.5922 18.5213L48.814 16.1506ZM42.1875 12.8516C38.8245 12.8516 36.198 14.4188 34.539 17.3616L38.0235 19.3259C38.9895 17.6124 40.3005 16.8516 42.1875 16.8516V12.8516ZM34.2812 18.3438V30.4609H38.2812V18.3438H34.2812ZM34.5368 31.4392C35.3325 32.8579 36.3898 34.0066 37.7353 34.7906C39.08 35.5741 40.6031 35.9297 42.2344 35.9297V31.9297C41.1938 31.9297 40.3888 31.7072 39.7491 31.3344C39.1102 30.9622 38.5269 30.3764 38.0257 29.4827L34.5368 31.4392ZM42.2344 35.9297C44.9327 35.9297 47.1817 34.82 48.7852 32.6614L45.5742 30.2761C44.7402 31.3988 43.6923 31.9297 42.2344 31.9297V35.9297ZM48.7833 32.6639C50.385 30.5148 51.0312 27.56 51.0312 24.1094H47.0312C47.0312 27.1588 46.4431 29.1102 45.5761 30.2736L48.7833 32.6639Z" fill="white"/>
</svg>
