<svg width="44" height="50" viewBox="0 0 44 50" fill="none" xmlns="http://www.w3.org/2000/svg">
<path d="M41.0312 2.5V48H35.0312V7.4375H18.7188L17.9062 25.4688C17.5938 31.5104 16.9688 36.0521 16.0312 39.0938C15.1146 42.1354 13.7604 44.375 11.9688 45.8125C10.1771 47.2292 7.78125 47.9583 4.78125 48H2.8125V43.0938L4.0625 43.0312C6 42.8854 7.48958 42.2604 8.53125 41.1562C9.57292 40.0312 10.3646 38.25 10.9062 35.8125C11.4479 33.375 11.8333 29.625 12.0625 24.5625L13 2.5H41.0312Z" fill="black"/>
<path d="M41.0312 2.5H43.0312V0.5H41.0312V2.5ZM41.0312 48V50H43.0312V48H41.0312ZM35.0312 48H33.0312V50H35.0312V48ZM35.0312 7.4375H37.0312V5.4375H35.0312V7.4375ZM18.7188 7.4375V5.4375H16.8068L16.7208 7.34747L18.7188 7.4375ZM17.9062 25.4688L19.9036 25.5721L19.9042 25.5588L17.9062 25.4688ZM16.0312 39.0938L14.1199 38.5046L14.1163 38.5166L16.0312 39.0938ZM11.9688 45.8125L13.2092 47.3813L13.2148 47.3769L13.2204 47.3725L11.9688 45.8125ZM4.78125 48V50H4.79514L4.80903 49.9998L4.78125 48ZM2.8125 48H0.8125V50H2.8125V48ZM2.8125 43.0938L2.71262 41.0962L0.8125 41.1913V43.0938H2.8125ZM4.0625 43.0312L4.16238 45.0288L4.18751 45.0275L4.21261 45.0256L4.0625 43.0312ZM8.53125 41.1562L9.98604 42.5287L9.99244 42.5219L9.99877 42.5151L8.53125 41.1562ZM12.0625 24.5625L14.0605 24.6529L14.0607 24.6474L12.0625 24.5625ZM13 2.5V0.5H11.0832L11.0018 2.41509L13 2.5ZM39.0312 2.5V48H43.0312V2.5H39.0312ZM41.0312 46H35.0312V50H41.0312V46ZM37.0312 48V7.4375H33.0312V48H37.0312ZM35.0312 5.4375H18.7188V9.4375H35.0312V5.4375ZM16.7208 7.34747L15.9083 25.3787L19.9042 25.5588L20.7167 7.52753L16.7208 7.34747ZM15.9089 25.3654C15.5988 31.3618 14.9831 35.7044 14.12 38.5047L17.9425 39.6828C18.9544 36.3998 19.5887 31.659 19.9036 25.5721L15.9089 25.3654ZM14.1163 38.5166C13.273 41.3151 12.0936 43.1481 10.7171 44.2525L13.2204 47.3725C15.4272 45.6019 16.9562 42.9558 17.9462 39.6709L14.1163 38.5166ZM10.7283 44.2437C9.37708 45.3121 7.45114 45.9627 4.75347 46.0002L4.80903 49.9998C8.11136 49.9539 10.9771 49.1463 13.2092 47.3813L10.7283 44.2437ZM4.78125 46H2.8125V50H4.78125V46ZM4.8125 48V43.0938H0.8125V48H4.8125ZM2.91238 45.0913L4.16238 45.0288L3.96262 41.0337L2.71262 41.0962L2.91238 45.0913ZM4.21261 45.0256C6.50345 44.8532 8.51465 44.0884 9.98604 42.5287L7.07646 39.7838C6.46452 40.4325 5.49655 40.9177 3.91239 41.0369L4.21261 45.0256ZM9.99877 42.5151C11.3878 41.0149 12.2834 38.8348 12.8586 36.2464L8.95388 35.3786C8.44576 37.6652 7.75804 39.0476 7.06373 39.7974L9.99877 42.5151ZM12.8586 36.2464C13.4396 33.6319 13.8302 29.7386 14.0605 24.6529L10.0645 24.4721C9.83643 29.5114 9.45621 33.1181 8.95388 35.3786L12.8586 36.2464ZM14.0607 24.6474L14.9982 2.58491L11.0018 2.41509L10.0643 24.4776L14.0607 24.6474ZM13 4.5H41.0312V0.5H13V4.5Z" fill="white"/>
</svg>
