<svg width="40" height="50" viewBox="0 0 40 50" fill="none" xmlns="http://www.w3.org/2000/svg">
<path d="M37.1875 48H31.1562V7.4375H8.71875V48H2.71875V2.5H37.1875V48Z" fill="black"/>
<path d="M37.1875 48V50H39.1875V48H37.1875ZM31.1562 48H29.1562V50H31.1562V48ZM31.1562 7.4375H33.1562V5.4375H31.1562V7.4375ZM8.71875 7.4375V5.4375H6.71875V7.4375H8.71875ZM8.71875 48V50H10.7188V48H8.71875ZM2.71875 48H0.71875V50H2.71875V48ZM2.71875 2.5V0.5H0.71875V2.5H2.71875ZM37.1875 2.5H39.1875V0.5H37.1875V2.5ZM37.1875 46H31.1562V50H37.1875V46ZM33.1562 48V7.4375H29.1562V48H33.1562ZM31.1562 5.4375H8.71875V9.4375H31.1562V5.4375ZM6.71875 7.4375V48H10.7188V7.4375H6.71875ZM8.71875 46H2.71875V50H8.71875V46ZM4.71875 48V2.5H0.71875V48H4.71875ZM2.71875 4.5H37.1875V0.5H2.71875V4.5ZM35.1875 2.5V48H39.1875V2.5H35.1875Z" fill="white"/>
</svg>
