<svg width="41" height="52" viewBox="0 0 41 52" fill="none" xmlns="http://www.w3.org/2000/svg">
<path d="M37.9062 34.5625C37.3438 39.375 35.5625 43.0938 32.5625 45.7188C29.5833 48.3229 25.6146 49.625 20.6562 49.625C15.2812 49.625 10.9688 47.6979 7.71875 43.8438C4.48958 39.9896 2.875 34.8333 2.875 28.375V24C2.875 19.7708 3.625 16.0521 5.125 12.8438C6.64583 9.63542 8.79167 7.17708 11.5625 5.46875C14.3333 3.73958 17.5417 2.875 21.1875 2.875C26.0208 2.875 29.8958 4.22917 32.8125 6.9375C35.7292 9.625 37.4271 13.3542 37.9062 18.125H31.875C31.3542 14.5 30.2188 11.875 28.4688 10.25C26.7396 8.625 24.3125 7.8125 21.1875 7.8125C17.3542 7.8125 14.3438 9.22917 12.1562 12.0625C9.98958 14.8958 8.90625 18.9271 8.90625 24.1562V28.5625C8.90625 33.5 9.9375 37.4271 12 40.3438C14.0625 43.2604 16.9479 44.7188 20.6562 44.7188C23.9896 44.7188 26.5417 43.9688 28.3125 42.4688C30.1042 40.9479 31.2917 38.3125 31.875 34.5625H37.9062Z" fill="black"/>
<path d="M37.9062 34.5625L39.8927 34.7947L40.1536 32.5625H37.9062V34.5625ZM32.5625 45.7188L33.8788 47.2246L33.8795 47.2239L32.5625 45.7188ZM7.71875 43.8438L6.1857 45.1282L6.18979 45.133L7.71875 43.8438ZM5.125 12.8438L3.31774 11.9871L3.31324 11.9967L5.125 12.8438ZM11.5625 5.46875L12.6121 7.17121L12.6214 7.16546L11.5625 5.46875ZM32.8125 6.9375L31.4516 8.4031L31.4572 8.40831L32.8125 6.9375ZM37.9062 18.125V20.125H40.1172L39.8962 17.9251L37.9062 18.125ZM31.875 18.125L29.8953 18.4094L30.1418 20.125H31.875V18.125ZM28.4688 10.25L27.0991 11.7075L27.1078 11.7156L28.4688 10.25ZM12.1562 12.0625L10.5732 10.8403L10.5675 10.8476L12.1562 12.0625ZM28.3125 42.4688L29.6052 43.9948L29.6068 43.9935L28.3125 42.4688ZM31.875 34.5625V32.5625H30.1621L29.8988 34.2551L31.875 34.5625ZM35.9198 34.3303C35.4018 38.7616 33.7956 41.9823 31.2455 44.2136L33.8795 47.2239C37.3294 44.2052 39.2857 39.9884 39.8927 34.7947L35.9198 34.3303ZM31.2462 44.2129C28.7168 46.424 25.2572 47.625 20.6562 47.625V51.625C25.9719 51.625 30.4498 50.2219 33.8788 47.2246L31.2462 44.2129ZM20.6562 47.625C15.8263 47.625 12.0899 45.9251 9.24771 42.5545L6.18979 45.133C9.84755 49.4708 14.7362 51.625 20.6562 51.625V47.625ZM9.25179 42.5593C6.40155 39.1574 4.875 34.4999 4.875 28.375H0.875C0.875 35.1667 2.57762 40.8218 6.18571 45.1282L9.25179 42.5593ZM4.875 28.375V24H0.875V28.375H4.875ZM4.875 24C4.875 20.0075 5.58248 16.5875 6.93676 13.6908L3.31324 11.9967C1.66752 15.5167 0.875 19.5342 0.875 24H4.875ZM6.93224 13.7004C8.30318 10.8083 10.2 8.65837 12.6121 7.17119L10.5129 3.76631C7.38334 5.6958 4.98848 8.46254 3.31776 11.9871L6.93224 13.7004ZM12.6214 7.16546C15.0386 5.65697 17.8712 4.875 21.1875 4.875V0.875C17.2121 0.875 13.6281 1.82219 10.5036 3.77204L12.6214 7.16546ZM21.1875 4.875C25.6301 4.875 28.9807 6.10873 31.4516 8.40309L34.1734 5.47191C30.8109 2.34961 26.4116 0.875 21.1875 0.875V4.875ZM31.4572 8.40831C33.9421 10.698 35.4753 13.9343 35.9163 18.3249L39.8962 17.9251C39.3789 12.774 37.5162 8.55203 34.1678 5.46669L31.4572 8.40831ZM37.9062 16.125H31.875V20.125H37.9062V16.125ZM33.8547 17.8406C33.3018 13.9924 32.0527 10.8486 29.8297 8.78441L27.1078 11.7156C28.3848 12.9014 29.4066 15.0076 29.8953 18.4094L33.8547 17.8406ZM29.8384 8.79257C27.633 6.72001 24.6556 5.8125 21.1875 5.8125V9.8125C23.9694 9.8125 25.8462 10.53 27.0991 11.7074L29.8384 8.79257ZM21.1875 5.8125C16.7853 5.8125 13.1694 7.47754 10.5732 10.8403L13.7393 13.2847C15.5181 10.9808 17.923 9.8125 21.1875 9.8125V5.8125ZM10.5675 10.8476C8.03523 14.1591 6.90625 18.6847 6.90625 24.1562H10.9062C10.9062 19.1695 11.9439 15.6326 13.745 13.2774L10.5675 10.8476ZM6.90625 24.1562V28.5625H10.9062V24.1562H6.90625ZM6.90625 28.5625C6.90625 33.7597 7.99005 38.1371 10.367 41.4985L13.633 39.189C11.885 36.7171 10.9062 33.2403 10.9062 28.5625H6.90625ZM10.367 41.4985C12.821 44.9688 16.328 46.7188 20.6562 46.7188V42.7188C17.5678 42.7188 15.304 41.5521 13.633 39.189L10.367 41.4985ZM20.6562 46.7188C24.2603 46.7188 27.3438 45.9103 29.6052 43.9948L27.0198 40.9427C25.7395 42.0272 23.7189 42.7188 20.6562 42.7188V46.7188ZM29.6068 43.9935C31.9315 42.0202 33.2367 38.8205 33.8512 34.8699L29.8988 34.2551C29.3466 37.8045 28.2769 39.8756 27.0182 40.944L29.6068 43.9935ZM31.875 36.5625H37.9062V32.5625H31.875V36.5625Z" fill="white"/>
</svg>
