<svg width="50" height="54" viewBox="0 0 50 54" fill="none" xmlns="http://www.w3.org/2000/svg">
<path d="M28.0625 9.0625H29.0312C32.4688 9.08333 35.6042 9.88542 38.4375 11.4688C41.2708 13.0521 43.4688 15.2396 45.0312 18.0312C46.6146 20.8021 47.4062 23.9062 47.4062 27.3438C47.4062 30.8021 46.6146 33.9375 45.0312 36.75C43.4479 39.5625 41.2604 41.7604 38.4688 43.3438C35.6771 44.9062 32.5729 45.7083 29.1562 45.75H28.0625V51.875H22.25V45.75H21.375C17.8958 45.75 14.7292 44.9583 11.875 43.375C9.04167 41.7917 6.83333 39.6042 5.25 36.8125C3.6875 34.0208 2.90625 30.8854 2.90625 27.4062C2.90625 23.9271 3.6875 20.7917 5.25 18C6.83333 15.2083 9.04167 13.0208 11.875 11.4375C14.7292 9.85417 17.8958 9.0625 21.375 9.0625H22.25V2.625H28.0625V9.0625ZM21.375 13.7812C17.4583 13.7812 14.3542 14.9896 12.0625 17.4062C9.79167 19.8021 8.65625 23.1354 8.65625 27.4062C8.65625 31.6979 9.79167 35.0417 12.0625 37.4375C14.3333 39.8125 17.4583 41 21.4375 41H22.25V13.7812H21.375ZM28.0625 13.7812V41H28.9375C32.9167 41 36.0208 39.7812 38.25 37.3438C40.5 34.8854 41.625 31.5521 41.625 27.3438C41.625 23.1771 40.5 19.875 38.25 17.4375C36.0208 15 32.875 13.7812 28.8125 13.7812H28.0625Z" fill="black"/>
<path d="M28.0625 9.0625H26.0625V11.0625H28.0625V9.0625ZM29.0312 9.0625L29.0434 7.0625H29.0312V9.0625ZM45.0312 18.0312L43.286 19.0081L43.2904 19.0158L43.2948 19.0235L45.0312 18.0312ZM38.4688 43.3438L39.4456 45.089L39.4554 45.0834L38.4688 43.3438ZM29.1562 45.75V47.75H29.1684L29.1806 47.7499L29.1562 45.75ZM28.0625 45.75V43.75H26.0625V45.75H28.0625ZM28.0625 51.875V53.875H30.0625V51.875H28.0625ZM22.25 51.875H20.25V53.875H22.25V51.875ZM22.25 45.75H24.25V43.75H22.25V45.75ZM11.875 43.375L10.8994 45.1209L10.9048 45.1239L11.875 43.375ZM5.25 36.8125L3.50474 37.7893L3.51033 37.7992L5.25 36.8125ZM5.25 18L3.5103 17.0133L3.50477 17.0232L5.25 18ZM11.875 11.4375L10.9048 9.68858L10.8994 9.69161L11.875 11.4375ZM22.25 9.0625V11.0625H24.25V9.0625H22.25ZM22.25 2.625V0.625H20.25V2.625H22.25ZM28.0625 2.625H30.0625V0.625H28.0625V2.625ZM12.0625 17.4062L10.6113 16.0301L10.6109 16.0304L12.0625 17.4062ZM12.0625 37.4375L10.6109 38.8134L10.6169 38.8197L12.0625 37.4375ZM22.25 41V43H24.25V41H22.25ZM22.25 13.7812H24.25V11.7812H22.25V13.7812ZM28.0625 13.7812V11.7812H26.0625V13.7812H28.0625ZM28.0625 41H26.0625V43H28.0625V41ZM38.25 37.3438L36.7747 35.9934L36.7741 35.994L38.25 37.3438ZM38.25 17.4375L36.7741 18.7872L36.7804 18.7941L38.25 17.4375ZM28.0625 11.0625H29.0312V7.0625H28.0625V11.0625ZM29.0191 11.0625C32.1398 11.0814 34.9406 11.8057 37.4619 13.2146L39.4131 9.72286C36.2677 7.96513 32.7977 7.08529 29.0434 7.06254L29.0191 11.0625ZM37.4619 13.2146C39.9775 14.6204 41.9068 16.5439 43.286 19.0081L46.7765 17.0544C45.0307 13.9353 42.5642 11.4837 39.4131 9.72286L37.4619 13.2146ZM43.2948 19.0235C44.6922 21.469 45.4062 24.2266 45.4062 27.3438H49.4062C49.4062 23.5859 48.537 20.1352 46.7677 17.039L43.2948 19.0235ZM45.4062 27.3438C45.4062 30.4837 44.6911 33.2772 43.2884 35.7689L46.7741 37.7311C48.538 34.5978 49.4062 31.1204 49.4062 27.3438H45.4062ZM43.2884 35.7689C41.8824 38.2664 39.9555 40.2012 37.4821 41.6041L39.4554 45.0834C42.5653 43.3196 45.0134 40.8586 46.7741 37.7311L43.2884 35.7689ZM37.4919 41.5985C35.0113 42.9869 32.2382 43.7123 29.1319 43.7501L29.1806 47.7499C32.9076 47.7044 36.3429 46.8256 39.4456 45.089L37.4919 41.5985ZM29.1562 43.75H28.0625V47.75H29.1562V43.75ZM26.0625 45.75V51.875H30.0625V45.75H26.0625ZM28.0625 49.875H22.25V53.875H28.0625V49.875ZM24.25 51.875V45.75H20.25V51.875H24.25ZM22.25 43.75H21.375V47.75H22.25V43.75ZM21.375 43.75C18.2122 43.75 15.3829 43.0339 12.8452 41.6261L10.9048 45.1239C14.0754 46.8828 17.5795 47.75 21.375 47.75V43.75ZM12.8506 41.6291C10.3328 40.2221 8.39041 38.2955 6.98967 35.8258L3.51033 37.7992C5.27626 40.9128 7.75052 43.3612 10.8994 45.1209L12.8506 41.6291ZM6.99523 35.8357C5.61419 33.3682 4.90625 30.5741 4.90625 27.4062H0.90625C0.90625 31.1967 1.76081 34.6734 3.50477 37.7893L6.99523 35.8357ZM4.90625 27.4062C4.90625 24.2384 5.61419 21.4443 6.99523 18.9768L3.50477 17.0232C1.76081 20.1391 0.90625 23.6158 0.90625 27.4062H4.90625ZM6.98967 18.9867C8.39041 16.517 10.3328 14.5904 12.8506 13.1834L10.8994 9.69161C7.75052 11.4513 5.27626 13.8997 3.51033 17.0133L6.98967 18.9867ZM12.8452 13.1864C15.3829 11.7786 18.2122 11.0625 21.375 11.0625V7.0625C17.5795 7.0625 14.0754 7.92971 10.9048 9.68858L12.8452 13.1864ZM21.375 11.0625H22.25V7.0625H21.375V11.0625ZM24.25 9.0625V2.625H20.25V9.0625H24.25ZM22.25 4.625H28.0625V0.625H22.25V4.625ZM26.0625 2.625V9.0625H30.0625V2.625H26.0625ZM21.375 11.7812C17.0144 11.7812 13.3472 13.1449 10.6113 16.0301L13.5137 18.7824C15.3612 16.8343 17.9022 15.7812 21.375 15.7812V11.7812ZM10.6109 16.0304C7.8937 18.8972 6.65625 22.7793 6.65625 27.4062H10.6562C10.6562 23.4916 11.6896 20.707 13.5141 18.7821L10.6109 16.0304ZM6.65625 27.4062C6.65625 32.051 7.89207 35.9448 10.6109 38.8133L13.5141 36.0617C11.6913 34.1385 10.6562 31.3448 10.6562 27.4062H6.65625ZM10.6169 38.8197C13.3429 41.6706 17.0362 43 21.4375 43V39C17.8805 39 15.3238 37.9544 13.5081 36.0553L10.6169 38.8197ZM21.4375 43H22.25V39H21.4375V43ZM24.25 41V13.7812H20.25V41H24.25ZM22.25 11.7812H21.375V15.7812H22.25V11.7812ZM26.0625 13.7812V41H30.0625V13.7812H26.0625ZM28.0625 43H28.9375V39H28.0625V43ZM28.9375 43C33.3535 43 37.0412 41.6291 39.7259 38.6935L36.7741 35.994C35.0005 37.9334 32.4799 39 28.9375 39V43ZM39.7253 38.6941C42.3948 35.7774 43.625 31.9155 43.625 27.3438H39.625C39.625 31.1887 38.6052 33.9934 36.7747 35.9934L39.7253 38.6941ZM43.625 27.3438C43.625 22.8084 42.3919 18.9759 39.7196 16.0809L36.7804 18.7941C38.6081 20.7741 39.625 23.5457 39.625 27.3438H43.625ZM39.7259 16.0878C37.0332 13.1434 33.2974 11.7812 28.8125 11.7812V15.7812C32.4526 15.7812 35.0085 16.8566 36.7741 18.7872L39.7259 16.0878ZM28.8125 11.7812H28.0625V15.7812H28.8125V11.7812Z" fill="white"/>
</svg>
